<svg width="1600" height="1000" viewBox="0 0 1600 1000" fill="none" xmlns="http://www.w3.org/2000/svg">
  <rect width="1600" height="1000" rx="40" fill="#060B22"/>
  <rect width="1600" height="1000" rx="40" fill="url(#bg)"/>
  <g opacity="0.9">
    <circle cx="1320" cy="220" r="220" fill="url(#glow1)"/>
    <circle cx="300" cy="240" r="180" fill="url(#glow2)"/>
    <circle cx="1150" cy="760" r="260" fill="url(#glow3)"/>
  </g>
  <g opacity="0.7">
    <path d="M200 710L340 560L440 680L560 470L720 660L880 500L980 620L1120 440L1240 710H200Z" fill="url(#city)"/>
    <rect x="220" y="620" width="60" height="120" rx="12" fill="rgba(255,255,255,0.45)"/>
    <rect x="320" y="570" width="80" height="170" rx="16" fill="rgba(255,255,255,0.35)"/>
    <rect x="440" y="620" width="80" height="120" rx="16" fill="rgba(255,255,255,0.3)"/>
    <rect x="560" y="520" width="90" height="220" rx="16" fill="rgba(255,255,255,0.3)"/>
    <rect x="700" y="590" width="70" height="160" rx="16" fill="rgba(255,255,255,0.32)"/>
    <rect x="810" y="520" width="90" height="230" rx="16" fill="rgba(255,255,255,0.28)"/>
    <rect x="940" y="600" width="70" height="150" rx="16" fill="rgba(255,255,255,0.28)"/>
    <rect x="1060" y="470" width="100" height="280" rx="16" fill="rgba(255,255,255,0.22)"/>
  </g>
  <g opacity="0.95">
    <rect x="1160" y="240" width="220" height="180" rx="30" fill="rgba(255,255,255,0.08)" stroke="rgba(255,255,255,0.18)"/>
    <path d="M1235 310H1308" stroke="white" stroke-width="14" stroke-linecap="round"/>
    <path d="M1235 350H1285" stroke="white" stroke-width="14" stroke-linecap="round" opacity="0.8"/>
    <path d="M1235 390H1268" stroke="white" stroke-width="14" stroke-linecap="round" opacity="0.65"/>
    <circle cx="1240" cy="250" r="38" fill="rgba(255,255,255,0.18)"/>
    <path d="M1240 214V286" stroke="white" stroke-width="12" stroke-linecap="round"/>
    <path d="M1204 250H1276" stroke="white" stroke-width="12" stroke-linecap="round"/>
  </g>
  <g opacity="0.95">
    <circle cx="360" cy="320" r="96" fill="rgba(255,255,255,0.16)"/>
    <path d="M360 232V408" stroke="white" stroke-width="12" stroke-linecap="round"/>
    <path d="M288 320H432" stroke="white" stroke-width="12" stroke-linecap="round"/>
    <circle cx="360" cy="320" r="30" fill="white" fill-opacity="0.8"/>
  </g>
  <g opacity="0.82">
    <rect x="700" y="200" width="170" height="110" rx="22" fill="rgba(255,255,255,0.16)"/>
    <path d="M725 250H820" stroke="white" stroke-width="10" stroke-linecap="round"/>
    <path d="M725 285H790" stroke="white" stroke-width="10" stroke-linecap="round" opacity="0.75"/>
    <circle cx="750" cy="220" r="14" fill="white" fill-opacity="0.8"/>
    <circle cx="790" cy="220" r="14" fill="rgba(255,255,255,0.7)"/>
  </g>
  <g opacity="0.7">
    <path d="M1100 150C1045 150 1000 195 1000 250C1000 305 1045 350 1100 350" stroke="#7D8BFF" stroke-width="18" stroke-linecap="round"/>
    <path d="M1100 350C1155 350 1200 305 1200 250C1200 195 1155 150 1100 150" stroke="#7DE0FF" stroke-width="18" stroke-linecap="round"/>
  </g>
  <g opacity="0.7">
    <circle cx="220" cy="780" r="8" fill="white"/>
    <circle cx="1320" cy="780" r="10" fill="white"/>
    <circle cx="1240" cy="140" r="6" fill="white"/>
    <circle cx="1000" cy="180" r="6" fill="white"/>
    <circle cx="780" cy="760" r="8" fill="white"/>
  </g>
  <defs>
    <linearGradient id="bg" x1="220" y1="130" x2="1420" y2="910" gradientUnits="userSpaceOnUse">
      <stop stop-color="#12163F"/>
      <stop offset="0.45" stop-color="#37206C"/>
      <stop offset="1" stop-color="#1E5AFF"/>
    </linearGradient>
    <radialGradient id="glow1" cx="0" cy="0" r="1" gradientUnits="userSpaceOnUse" gradientTransform="translate(1320 220) rotate(90) scale(220)">
      <stop stop-color="#8A7CFF" stop-opacity="0.8"/>
      <stop offset="1" stop-color="#8A7CFF" stop-opacity="0"/>
    </radialGradient>
    <radialGradient id="glow2" cx="0" cy="0" r="1" gradientUnits="userSpaceOnUse" gradientTransform="translate(300 240) rotate(90) scale(180)">
      <stop stop-color="#4FE5FF" stop-opacity="0.7"/>
      <stop offset="1" stop-color="#4FE5FF" stop-opacity="0"/>
    </radialGradient>
    <radialGradient id="glow3" cx="0" cy="0" r="1" gradientUnits="userSpaceOnUse" gradientTransform="translate(1150 760) rotate(90) scale(260)">
      <stop stop-color="#7CF3B1" stop-opacity="0.55"/>
      <stop offset="1" stop-color="#7CF3B1" stop-opacity="0"/>
    </radialGradient>
    <linearGradient id="city" x1="200" y1="520" x2="1240" y2="710" gradientUnits="userSpaceOnUse">
      <stop stop-color="#17376F"/>
      <stop offset="1" stop-color="#4E5BE8"/>
    </linearGradient>
  </defs>
</svg>
